<svg width="390" height="390" viewBox="0 0 390 390" fill="none" xmlns="http://www.w3.org/2000/svg">
<path d="M268.083 82.0395C264.988 73.7753 261.758 65.1527 239.894 70.9849C228.154 74.1165 218.313 85.1809 210.268 101.612C204.215 114.679 199.1 131.577 195.021 151.838C186.684 193.237 183.172 246.79 184.814 298.858L181.176 298.972L181.128 297.402C180.018 259.804 181.576 221.504 185.689 187.547C168.192 169.362 148.248 155.028 133.715 150.267C99.2755 142.673 90.1772 162.736 90.4028 180.632C90.4441 183.905 91.5877 186.627 92.7398 189.369C93.931 192.204 95.1314 195.06 95.1314 198.57C95.1314 200.897 89.9265 205.705 83.1607 211.954C69.8593 224.241 50.5247 242.1 52.8453 257.642C54.9898 272.005 68.5898 282.911 81.1079 288.775C82.3334 289.349 83.6683 290.415 85.2743 291.698C86.4166 292.611 87.696 293.633 89.1709 294.666L89.2843 294.745C90.4429 295.543 92.3551 296.669 95.0209 298.122L95.8432 298.568C133.556 318.913 177.325 305.207 190.964 300.148L191.761 299.849L288.479 298.772L288.467 298.697C288.44 298.539 288.397 298.305 288.341 298.003C287.432 293.076 283.162 269.932 292.254 260.605C320.649 231.478 351.785 148.123 309.452 113.193C300.097 105.474 290.814 100.782 283.684 97.1777C279.354 94.9889 275.819 93.2017 273.544 91.3819C270.742 89.1408 269.425 85.6239 268.083 82.0395Z" fill="#00160A"/>
<path fill-rule="evenodd" clip-rule="evenodd" d="M96.7985 175.335C94.6671 174.965 98.434 179.192 98.434 179.192C98.434 179.192 98.93 175.706 96.7985 175.335Z" fill="white"/>
<path fill-rule="evenodd" clip-rule="evenodd" d="M128.679 299.097C128.679 299.097 105.785 289.518 105.785 276.182C105.785 272.269 108.232 272.645 113.127 277.309C113.659 277.816 114.422 278.595 115.414 279.645C116.023 280.288 102.282 263.604 109.206 260.483C115.955 257.44 117.525 273.235 117.877 273.017C118.27 272.774 118.155 267.996 119.717 265.883C120.558 264.744 123.033 264.501 124.905 265.883C134.742 273.14 128.679 299.097 128.679 299.097Z" fill="white"/>
<path fill-rule="evenodd" clip-rule="evenodd" d="M118.839 201.262C118.839 201.262 109.315 200.773 108.017 197.745C106.719 194.717 113.781 196.438 113.781 196.438L118.839 201.262Z" fill="white"/>
<path fill-rule="evenodd" clip-rule="evenodd" d="M102.732 186.906C100.6 185.713 101.813 182.869 102.732 182.75C105.454 182.4 107.602 188.432 107.902 189.036C108.422 190.082 103.814 187.512 102.732 186.906Z" fill="white"/>
<path fill-rule="evenodd" clip-rule="evenodd" d="M124.656 205.191C124.656 205.191 119.442 191.897 124.269 192.945C129.096 193.992 127.708 209.447 127.708 209.447L124.656 205.191Z" fill="white"/>
<path fill-rule="evenodd" clip-rule="evenodd" d="M121.156 195.508C121.224 197.664 122.145 200.972 123.914 205.482C123.938 205.544 123.97 205.602 124.008 205.656L127.06 209.911C127.49 210.512 128.436 210.254 128.502 209.518L128.557 208.881C129.415 198.577 128.176 192.977 124.438 192.166C122.264 191.694 121.076 192.994 121.156 195.508ZM124.181 193.743C126.503 194.339 127.583 198.648 127.111 206.736L127.081 207.205L125.362 204.807L125.061 204.026C123.575 200.122 122.806 197.252 122.749 195.457L122.745 195.207C122.742 193.847 123.115 193.51 124.1 193.724L124.181 193.743Z" fill="#00160A"/>
<path fill-rule="evenodd" clip-rule="evenodd" d="M106.243 259.677C102.884 261.191 103.116 265.011 105.681 270.214L105.877 270.607C106.346 271.529 106.882 272.482 107.474 273.459L107.678 273.793L107.652 273.776C106.693 273.138 105.866 272.765 105.154 272.655C103.264 272.365 102.301 273.758 102.301 276.182C102.301 285.515 110.183 293.404 125.738 299.913C126.243 300.124 126.816 299.831 126.94 299.298C131.054 281.684 129.759 270.284 122.83 265.171C120.704 263.603 117.631 263.7 116.406 265.357L116.3 265.507C115.779 266.272 115.416 267.28 115.147 268.532L115.135 268.588L115.1 268.45C114.909 267.7 114.706 266.993 114.477 266.284C113.718 263.935 112.81 262.09 111.671 260.856C110.172 259.231 108.308 258.746 106.243 259.677ZM113.852 270.877L114.24 272.707L114.285 272.898C114.314 273.013 114.34 273.105 114.366 273.184C114.401 273.289 114.438 273.377 114.497 273.469C114.57 273.585 114.661 273.686 114.805 273.773C115.085 273.942 115.445 273.952 115.742 273.769C116.124 273.532 116.218 273.33 116.323 272.661L116.371 272.327C116.406 272.08 116.532 271.031 116.554 270.864C116.639 270.201 116.724 269.654 116.828 269.133C117.073 267.909 117.402 266.984 117.828 266.408C118.411 265.62 120.376 265.557 121.781 266.594L121.965 266.733C127.809 271.233 129.074 281.429 125.562 297.383L125.453 297.871L125.094 297.715C111.014 291.574 104.069 284.377 104.069 276.182C104.069 274.693 104.329 274.317 104.886 274.403C105.873 274.554 107.596 275.737 109.917 277.949L110.213 278.236C110.567 278.584 111.002 279.027 111.516 279.563L112.202 280.283C112.213 280.294 112.231 280.31 112.266 280.341L112.277 280.368C112.305 280.412 112.392 280.429 112.971 280.536L113.173 280.465C113.412 280.375 113.45 280.315 113.653 279.996L113.7 279.802C113.728 279.674 113.724 279.644 113.709 279.534L113.67 279.377C113.662 279.347 113.655 279.331 113.645 279.308L113.636 279.289C113.612 279.238 113.598 279.212 113.576 279.177L113.335 278.854L112.723 278.043C112.618 277.902 112.511 277.759 112.394 277.599C111.386 276.232 110.409 274.819 109.491 273.361C108.63 271.994 107.88 270.677 107.266 269.433C105.103 265.042 104.931 262.207 106.969 261.288C109.423 260.182 111.307 262.224 112.795 266.828C113.199 268.079 113.52 269.34 113.852 270.877Z" fill="#00160A"/>
<path fill-rule="evenodd" clip-rule="evenodd" d="M108.984 189.523L109.71 190.184C118.715 198.404 124.984 204.962 128.326 209.513C134.159 217.457 138.859 225.696 142.821 234.42C144.229 237.521 145.503 240.591 146.759 243.851L147.101 244.744C147.493 245.774 147.871 246.79 148.284 247.917L150.041 252.767C154.796 265.784 153.222 266.418 148.696 253.757L146.918 248.847C146.546 247.827 146.205 246.905 145.862 245.995L145.604 245.314C144.248 241.748 142.883 238.432 141.362 235.083C137.444 226.455 132.798 218.31 127.035 210.462L126.77 210.106C123.347 205.547 116.99 198.956 107.907 190.709C107.58 190.412 107.555 189.905 107.853 189.578C108.15 189.25 108.657 189.226 108.984 189.523ZM87.9079 171.367L99.1214 180.939C100.173 181.84 100.992 182.547 101.383 182.892C101.715 183.184 101.747 183.69 101.454 184.022C101.162 184.354 100.656 184.386 100.324 184.093L97.4054 181.578C93.5301 178.258 87.4118 173.051 86.8661 172.584C86.53 172.297 86.4908 171.791 86.7785 171.455C87.0662 171.119 87.5718 171.08 87.9079 171.367Z" fill="#00160A"/>
<path fill-rule="evenodd" clip-rule="evenodd" d="M108.632 195.126C107.16 195.46 106.664 196.613 107.284 198.059C108.318 200.471 112.151 201.717 118.797 202.058C119.536 202.096 119.923 201.195 119.388 200.685L114.331 195.861C114.23 195.764 114.105 195.696 113.969 195.663C111.503 195.062 109.747 194.874 108.632 195.126ZM113.385 197.162L116.683 200.307L116.484 200.289L115.986 200.236C111.741 199.76 109.326 198.776 108.749 197.431L108.689 197.286C108.513 196.844 108.576 196.774 108.985 196.682C109.737 196.511 111.146 196.645 113.153 197.108L113.385 197.162Z" fill="#00160A"/>
<path fill-rule="evenodd" clip-rule="evenodd" d="M103.951 303.778C101.943 304.934 102.761 306.138 107.091 308.059C111.763 310.16 120.458 314.215 135.393 315.358C158.525 317.128 179.587 313.789 206.175 313.789C242.985 313.789 259.142 321.877 272.026 320.012C306.562 315.011 314.386 305.307 304.083 302.803C292.771 300.054 256.818 300.39 244.715 299.599L240.969 299.359L237.752 299.278C202.916 298.423 147.076 299.278 136.17 299.278C113.922 299.278 103.951 303.778 103.951 303.778Z" fill="white"/>
<path fill-rule="evenodd" clip-rule="evenodd" d="M206.175 313.789C242.985 313.789 259.142 322.156 272.025 320.291C306.562 315.291 314.386 305.307 304.083 302.803C292.771 300.054 251.68 299.161 241.562 299.38C241.562 299.38 288.077 307.975 285.588 310.822C278.177 319.297 259.722 309.055 226.205 309.354C219.3 309.416 206.175 313.789 206.175 313.789Z" fill="#E7EAEE"/>
<path fill-rule="evenodd" clip-rule="evenodd" d="M138.378 299.642C137.482 299.647 136.762 299.649 136.17 299.649L135.154 299.651C120.691 299.719 110.141 301.239 103.462 304.253L103.357 304.307C101.797 305.205 101.199 306.529 102.18 307.887C102.814 308.766 104.141 309.596 106.381 310.605L108.286 311.456C110.662 312.508 112.071 313.078 114.187 313.823L114.417 313.903C120.521 316.036 127.294 317.491 135.302 318.104C140.992 318.539 146.791 318.689 153.148 318.6L155.373 318.561C159.552 318.475 163.113 318.329 169.618 317.979L180.861 317.357C191.575 316.777 198.112 316.545 205.828 316.538L206.175 316.538C219.986 316.538 231.268 317.59 243.782 319.638L244.868 319.819C246.753 320.147 257.124 321.974 259.987 322.385L260.086 322.4C265.083 323.103 268.78 323.243 272.196 322.749L273.151 322.608C288.664 320.29 299.873 316.837 305.534 313.017C311.19 309.2 310.678 304.828 304.551 303.254L304.364 303.207C299.275 301.971 289.616 301.284 274.608 300.834L271.53 300.747C270.633 300.723 269.706 300.699 268.731 300.675L255.665 300.373C250.634 300.248 247.549 300.141 245.213 299.999L241.045 299.732L237.781 299.649L234.464 299.574C224.844 299.374 213.353 299.277 200.2 299.269L196.289 299.269C187.124 299.275 177.638 299.32 167.046 299.399L138.378 299.642ZM203.259 301.652C216.386 301.674 227.769 301.789 237.182 302.014L240.939 302.108L245.212 302.382C247.563 302.522 250.642 302.628 255.596 302.751L268.181 303.041C269.665 303.077 271.036 303.113 272.351 303.149L275.433 303.239C289.74 303.684 299.04 304.361 303.802 305.519L304.087 305.591C308.036 306.627 308.166 308.371 304.204 311.045C298.785 314.701 276.543 324.497 260.825 321.158L260.102 321.055C256.78 320.561 245.646 318.064 244.99 317.955L243.376 317.691C231.324 315.75 220.323 314.733 207.062 314.689L205.134 314.689C197.204 314.71 190.374 314.975 178.769 315.618L170.716 316.066C162.927 316.49 159.213 316.643 154.367 316.73L153.977 316.737C129.401 317.691 114.417 311.966 114.417 311.966C112.456 311.266 107.381 309.503 107.381 309.503L107.004 309.33C95.1643 305.311 121.013 302.096 135.175 302.03L139.59 302.013L165.238 301.792C177.177 301.699 187.69 301.649 197.858 301.648L203.259 301.652Z" fill="#00160A"/>
<path fill-rule="evenodd" clip-rule="evenodd" d="M257.875 282.475C257.875 282.475 257.813 286.001 258.898 287.632C259.983 289.264 263.01 293.803 265.826 294.997C266.693 295.365 270.004 295.412 271.993 296.574C275.99 298.909 276.88 303.115 271.993 304.006C262.293 305.775 258.898 300.662 258.898 300.662C258.898 300.662 254.902 294.997 250.897 291.24C246.891 287.484 243.7 286.352 243.7 286.352" fill="white"/>
<path d="M291.352 127.444C290.002 127.343 289.208 128.369 289.208 129.612C289.208 133.913 296.236 139.795 300.815 139.795C302.157 139.795 303.255 138.835 302.866 137.368C302.719 136.814 302.38 136.324 301.826 135.719L301.703 135.588C301.08 134.926 300.435 134.334 298.99 133.09L296.776 131.193C296.233 130.723 295.369 129.973 295.108 129.75L294.793 129.483C294.188 128.972 293.72 128.601 293.303 128.305C292.564 127.783 291.992 127.492 291.352 127.444Z" fill="white"/>
<path fill-rule="evenodd" clip-rule="evenodd" d="M246.46 211.779C246.46 211.779 243.799 204.185 236.961 202.128C234.788 201.475 244.293 215.82 235.904 221.171C233.285 222.841 228.629 223.708 222.9 224.523C197.361 228.159 189.66 218.629 173.895 213.975C167.573 212.109 136.825 203.854 132.176 245.904C129.266 272.224 151.307 280.381 171.059 284.563C210.629 292.941 271.263 289.639 290.173 262.026C312.714 229.11 278.069 200.445 273.188 197.415C272.006 196.682 275.395 206.088 275.772 210.846C276.149 215.604 273.188 217.334 273.188 217.334C273.188 217.334 272.021 212.297 261.705 211.433C251.388 210.568 246.46 211.779 246.46 211.779Z" fill="white"/>
<path fill-rule="evenodd" clip-rule="evenodd" d="M94.6736 176.737C95.0351 177.589 95.8761 178.718 97.2435 180.253C98.1463 181.266 99.8214 180.76 100.012 179.416C100.449 176.347 99.5355 174.193 97.0714 173.764C95.1427 173.429 93.8972 174.906 94.6736 176.737ZM98.4339 179.192L98.1893 178.915C95.8884 176.29 95.4248 175.097 96.7984 175.335C98.2193 175.582 98.7645 176.868 98.4339 179.192Z" fill="#00160A"/>
<path fill-rule="evenodd" clip-rule="evenodd" d="M102.63 181.959C101.734 182.075 101.003 183.127 100.802 184.289C100.571 185.626 101.068 186.889 102.343 187.602L103.222 188.089C104.07 188.554 104.831 188.953 105.572 189.309L105.916 189.471C106.468 189.726 106.914 189.905 107.254 189.998C107.602 190.094 107.866 190.121 108.147 190.018C108.749 189.798 108.854 189.23 108.646 188.746L108.58 188.6C108.497 188.405 108.292 187.915 108.174 187.642L108.148 187.583C107.826 186.847 107.498 186.169 107.137 185.521C105.799 183.124 104.36 181.737 102.63 181.959ZM105.909 186.6C106.126 187.007 106.332 187.432 106.535 187.881L106.602 188.031L106.406 187.94L106.263 187.872C105.314 187.416 104.311 186.876 103.121 186.211C102.479 185.851 102.25 185.27 102.373 184.561C102.427 184.253 102.548 183.955 102.699 183.736C102.745 183.67 102.791 183.616 102.832 183.576L102.877 183.537L102.834 183.541C103.664 183.434 104.709 184.442 105.745 186.298L105.909 186.6Z" fill="#00160A"/>
<path fill-rule="evenodd" clip-rule="evenodd" d="M116.265 195.71C116.123 195.092 108.181 180.618 113.758 181.073C119.335 181.528 118.007 197.932 117.813 197.932C117.584 197.932 116.367 196.153 116.265 195.71Z" fill="white"/>
<path fill-rule="evenodd" clip-rule="evenodd" d="M110.978 183.229C110.978 184.614 111.44 186.447 112.268 188.674C112.517 189.343 112.796 190.038 113.102 190.759L113.289 191.194C114.025 192.89 115.501 195.944 115.488 195.888C115.567 196.233 115.899 196.808 116.335 197.44L116.496 197.671C117.03 198.429 117.296 198.704 117.747 198.728L117.937 198.732C118.478 198.761 118.478 198.947 118.603 198.16L118.648 197.872C118.666 197.754 118.686 197.6 118.705 197.417L118.716 197.304C118.766 196.792 118.811 196.125 118.842 195.395C118.921 193.509 118.898 191.491 118.744 189.608L118.702 189.13C118.203 183.85 116.755 180.517 113.823 180.278C111.949 180.126 110.977 181.298 110.978 183.229ZM113.693 181.868C115.562 182.02 116.762 184.948 117.155 189.738C117.303 191.55 117.325 193.504 117.249 195.328L117.222 195.87L117.194 195.822C117.117 195.69 117.064 195.59 117.047 195.546L117.042 195.531C117.008 195.382 115.408 192.071 114.752 190.56C114.382 189.707 114.051 188.892 113.763 188.118C112.995 186.055 112.572 184.376 112.572 183.229C112.572 182.184 112.84 181.824 113.609 181.862L113.693 181.868Z" fill="#00160A"/>
<path fill-rule="evenodd" clip-rule="evenodd" d="M138.182 225.113C138.182 225.113 139.929 222.686 140.911 221.481C141.893 220.276 142.945 219.267 142.945 219.267C142.945 219.267 119.229 216.907 111.014 210.792C100.287 202.807 90.6643 189.564 80.9714 186.763C69.3839 183.414 65.0953 191.181 61.753 191.814C51.5714 193.744 32.9238 199.233 41.4506 215.814C44.0831 220.934 52.6108 223.314 58.6185 220.46C65.3244 217.275 73.5827 209.471 82.2682 209.471C92.3119 209.471 94.0606 217.7 106.81 222.062C114.636 224.739 138.182 225.113 138.182 225.113Z" fill="white"/>
<path fill-rule="evenodd" clip-rule="evenodd" d="M166.421 283.788C166.421 283.788 172.211 290.108 174.61 294.174C177.009 298.24 176.169 300.445 179.499 302.324C184.503 305.147 189.66 304.435 191.955 302.934C194.25 301.433 192.097 297.59 187.286 297.59C186.103 297.59 184.712 294.873 184.038 293.076C183.364 291.278 183.672 286.855 183.672 286.855L166.421 283.788Z" fill="white"/>
<path fill-rule="evenodd" clip-rule="evenodd" d="M274.262 199.007C274.262 199.007 311.987 245.277 258.936 272.437C221.833 291.432 160.876 281.176 160.876 281.176C160.876 281.176 227.235 299.016 270.607 277.508C298.282 263.784 303.756 240.457 290.553 216.706C287.098 210.491 274.262 199.007 274.262 199.007Z" fill="#E7EAEE"/>
<path fill-rule="evenodd" clip-rule="evenodd" d="M272.046 196.699C272.522 196.07 273.263 196.062 273.816 196.405C275.596 197.51 278.818 200.186 281.918 203.325C286.219 207.681 290.06 212.617 293.005 217.937C301.068 232.504 300.347 247.755 290.114 262.698C281.069 275.906 263.373 283.877 238.533 287.448C216.806 290.571 191.654 290.139 170.813 285.726L169.768 285.502C157.84 282.898 149.047 279.59 142.395 274.478C133.669 267.773 129.599 258.391 130.994 245.773C133.106 226.673 140.656 216.059 152.039 212.34C156.271 210.958 160.803 210.618 165.48 211.08C168.687 211.396 171.381 211.993 174.232 212.834L174.739 212.986C177.836 213.925 180.472 214.962 184.538 216.764L187.544 218.11C193.772 220.902 197.376 222.226 202.041 223.166C207.912 224.35 214.376 224.49 222.219 223.417L223.383 223.252C229.785 222.319 233.221 221.471 235.265 220.168C237.657 218.642 238.511 216.168 238.169 212.743C238.014 211.185 237.627 209.542 237.016 207.626L236.848 207.109C236.584 206.327 235.814 204.127 235.672 203.649C235.497 203.057 235.416 202.645 235.445 202.261C235.517 201.299 236.36 200.706 237.304 200.989C242.292 202.489 245.875 206.846 248.075 213.909C248.27 214.536 247.92 215.203 247.293 215.398C246.666 215.594 245.999 215.244 245.804 214.617C244.129 209.24 241.683 205.743 238.48 204.034L238.27 203.926L239.136 206.451L239.16 206.523C241.358 215.9 239.725 223.252 224.936 225.524C224.122 225.649 207.769 227.056 200.979 225.376C190.693 222.83 176.094 213.331 167.342 212.986C158.591 212.64 156.666 213.331 152.778 214.602C142.345 218.01 133.667 229.05 131.916 247.282C130.991 256.91 136.192 266.665 144.72 272.675C166.422 287.968 216.748 288.696 238.194 285.614C262.44 282.128 280.602 273.897 289.192 261.354C298.877 247.211 298.577 232.917 290.923 219.089C288.092 213.974 284.383 209.207 280.225 204.996C278.331 203.078 276.394 201.344 274.823 200.08L274.558 199.869L274.788 200.776L275.525 203.606L275.793 204.666C275.835 204.834 275.876 204.997 275.915 205.158L276.055 205.74C276.553 207.831 276.855 209.454 276.958 210.752C277.242 214.341 276.203 216.95 273.788 218.361C273.221 218.692 272.493 218.501 272.161 217.934C271.83 217.367 272.021 216.638 272.588 216.307C274.121 215.411 274.805 213.695 274.587 210.94C274.495 209.788 274.21 208.263 273.738 206.277L273.604 205.723C273.546 205.487 273.486 205.244 273.423 204.992L272.386 200.986C272.232 200.38 272.116 199.903 272.023 199.488L271.996 199.365C271.838 198.643 271.755 198.127 271.75 197.738C271.745 197.34 271.802 197.023 272.046 196.699Z" fill="#00160A"/>
<path fill-rule="evenodd" clip-rule="evenodd" d="M246.365 210.468L247.215 210.325C252.826 209.399 257.355 209.065 260.815 209.327C264.466 209.603 268.336 210.59 272.426 212.283C272.965 212.506 273.221 213.124 272.998 213.664C272.775 214.203 272.157 214.46 271.617 214.237C267.725 212.626 264.071 211.694 260.655 211.435C257.222 211.175 252.573 211.545 246.724 212.552C246.149 212.651 245.602 212.265 245.503 211.689C245.404 211.114 245.79 210.567 246.365 210.468Z" fill="#00160A"/>
<path fill-rule="evenodd" clip-rule="evenodd" d="M253.128 205.724C255.66 205.204 257.973 205.473 260.037 206.539C262.012 207.559 263.724 208.843 265.168 210.389C265.47 210.712 265.453 211.219 265.13 211.521C264.806 211.823 264.299 211.806 263.997 211.482C262.68 210.073 261.116 208.9 259.302 207.962C257.575 207.07 255.635 206.845 253.45 207.294C253.017 207.383 252.593 207.103 252.504 206.67C252.415 206.237 252.694 205.813 253.128 205.724Z" fill="#00160A"/>
<path fill-rule="evenodd" clip-rule="evenodd" d="M258.248 201.529C258.476 201.15 258.967 201.026 259.347 201.253C261.378 202.468 263.06 203.827 264.389 205.333C265.73 206.853 266.832 208.795 267.698 211.157C267.851 211.572 267.637 212.032 267.222 212.185C266.807 212.337 266.346 212.124 266.194 211.709C265.393 209.524 264.389 207.754 263.187 206.393C261.973 205.017 260.42 203.761 258.525 202.628C258.145 202.401 258.021 201.909 258.248 201.529Z" fill="#00160A"/>
<path fill-rule="evenodd" clip-rule="evenodd" d="M235.039 220.564C235.374 220.086 236.033 219.97 236.511 220.305C236.989 220.64 226.782 235.177 226.782 237.997C226.782 241.056 228.284 243.103 232.286 246.331L233.982 247.68L234.475 248.075C236.956 250.079 238.401 251.486 239.629 253.271C241.346 255.766 242.154 258.552 241.948 261.856C241.694 265.932 240.465 268.748 238.028 271.998L237.807 272.289C237.534 272.642 236.328 274.183 235.997 274.634C234.819 276.243 234.264 277.455 234.163 278.878C233.718 285.148 236.669 292.719 243.075 301.563C243.418 302.036 243.312 302.697 242.839 303.039C242.366 303.382 241.705 303.276 241.363 302.803C234.692 293.594 231.568 285.578 232.054 278.729C232.183 276.912 232.845 275.406 234.134 273.602L234.291 273.384C234.671 272.867 236.054 271.102 236.171 270.949C238.492 267.904 241.847 263.449 239.16 254.972C237.807 250.704 224.964 247.68 224.542 238.595C224.442 236.454 228.01 230.597 235.039 220.564Z" fill="#00160A"/>
<path d="M238.926 264.518L237.45 264.534C228.716 264.646 223.403 265.086 221.762 265.79L221.702 265.817C219.289 266.923 217.391 268.424 215.94 270.223C214.813 271.619 214.017 273.117 213.496 274.611C213.341 275.057 213.221 275.473 213.131 275.852L213.07 276.121L215.596 279.359C215.622 279.391 215.645 279.424 215.666 279.458L215.69 279.493L215.77 279.61C216.316 280.401 216.935 281.175 217.732 282.077L218.099 282.486C218.754 283.2 220.838 285.446 221.546 286.255C223.06 287.984 224.336 289.648 225.557 291.558C227.42 294.47 229.062 297.833 230.537 301.905L230.643 302.203L230.749 302.508C230.877 302.885 231.004 303.273 231.14 303.709L231.763 305.751C232.682 308.761 233.324 310.143 234.342 310.98L234.513 311.117C235.848 312.156 237.091 312.413 240.548 312.522L241.559 312.551C246.155 312.676 248.552 309.027 245.922 306.375C245.097 305.543 242.377 304.898 237.928 304.628C237.346 304.593 237.893 303.091 237.928 302.508C237.964 301.926 238.465 301.482 239.048 301.517C239.563 301.548 240.058 301.584 240.533 301.625C234.641 293.085 231.764 285.808 232.222 279.359C232.351 277.542 232.156 276.831 233.445 275.027L233.691 274.69C234.16 274.063 235.373 272.516 235.481 272.373C236.474 271.072 237.165 270.005 237.719 268.842L237.828 268.607L237.865 268.523L237.927 268.388C238.218 267.72 238.527 266.57 238.842 264.958L238.926 264.518Z" fill="white"/>
<path fill-rule="evenodd" clip-rule="evenodd" d="M214.095 274.894C214.928 277.325 216.381 278.808 218.404 281.104L218.689 281.423C219.194 281.979 221.485 284.445 222.235 285.301C223.749 287.031 225.025 288.694 226.246 290.605C228.109 293.517 229.751 296.88 231.226 300.952C231.297 301.148 231.367 301.348 231.438 301.555L231.63 302.133C231.674 302.265 231.717 302.401 231.762 302.541L232.014 303.353C232.143 303.775 232.404 304.639 232.452 304.797L232.591 305.248C233.438 307.948 234.065 309.232 235.031 310.027L235.202 310.164C236.48 311.159 237.674 311.436 240.808 311.554L242.248 311.597C246.843 311.723 249.241 308.073 246.611 305.421C245.786 304.59 243.066 303.945 238.617 303.675C238.035 303.639 237.591 303.138 237.626 302.555C237.661 301.973 238.163 301.529 238.745 301.564L239.3 301.6C243.946 301.922 246.834 302.644 248.112 303.932C252.229 308.084 248.563 313.768 242.378 313.714L241.634 313.696C237.218 313.577 235.635 313.26 233.688 311.66C232.3 310.518 231.546 308.983 230.577 305.891L229.949 303.831L229.747 303.184C229.661 302.914 229.58 302.662 229.498 302.419L229.437 302.238C229.37 302.044 229.304 301.855 229.237 301.672C227.815 297.744 226.241 294.522 224.465 291.744C223.394 290.069 222.279 288.593 220.974 287.075L220.644 286.694C219.88 285.823 217.394 283.148 217.048 282.762C214.793 280.241 213.446 278.205 212.485 275.522L212.387 275.242C210.517 269.787 208.116 267.926 204.98 269.088C204.432 269.291 198.305 272.231 204.239 268.285C210.174 264.339 214.095 274.894 214.095 274.894Z" fill="#00160A"/>
<path fill-rule="evenodd" clip-rule="evenodd" d="M250.989 237.333C249.837 237.333 248.184 234.024 248.184 232.407C248.184 230.791 252.321 231.338 252.321 231.338C252.321 231.338 256.665 231.92 256.066 233.546C255.468 235.172 251.63 237.333 250.989 237.333Z" fill="#FFB61D"/>
<ellipse cx="244.179" cy="225.429" rx="2.28163" ry="4.26249" fill="#00160A"/>
<ellipse cx="266" cy="226.393" rx="2.50052" ry="4.19572" fill="#00160A"/>
<path fill-rule="evenodd" clip-rule="evenodd" d="M264.368 233.437C266.273 232.619 268.38 232.464 270.669 232.964C272.907 233.452 279.649 237.672 279.413 238.046C279.178 238.421 272.35 234.971 270.327 234.529C268.354 234.098 266.586 234.228 265 234.909C264.594 235.084 264.123 234.896 263.948 234.489C263.773 234.083 263.961 233.612 264.368 233.437Z" fill="#00160A"/>
<path fill-rule="evenodd" clip-rule="evenodd" d="M265.582 236.206C267.581 236.312 268.102 235.856 270.841 237.633C273.58 239.411 275.626 243.598 275.252 243.834C274.877 244.069 272.691 240.335 270.183 238.454C267.675 236.574 264.716 237.405 264.739 236.963C264.761 236.546 265.099 236.22 265.509 236.205L265.582 236.206Z" fill="#00160A"/>
<path fill-rule="evenodd" clip-rule="evenodd" d="M251.696 239.069C251.141 242.521 251.28 244.719 251.488 247.171C251.696 249.624 253.657 253.154 253.853 254.63C254.05 256.106 250.145 250.02 249.909 247.44C249.673 244.86 247.999 237.847 250.923 238.173C250.923 238.173 251.758 238.685 251.696 239.069Z" fill="#00160A"/>
<path fill-rule="evenodd" clip-rule="evenodd" d="M237.147 233.859C238.922 233.859 239.641 233.903 241.37 234.243C241.804 234.329 242.087 234.75 242.002 235.184C241.916 235.618 241.495 235.901 241.061 235.815C240.446 235.694 239.266 235.179 237.309 235.2C234.635 235.228 232.307 236.712 232.19 236.467C232.001 236.067 235.371 233.859 237.147 233.859Z" fill="#00160A"/>
<path fill-rule="evenodd" clip-rule="evenodd" d="M240.051 230.42C240.481 230.521 240.748 230.953 240.646 231.383C240.545 231.814 240.114 232.081 239.683 231.979C235.837 231.072 232.751 231.096 230.574 231.011C228.433 230.928 223.631 231.263 223.49 230.843C223.35 230.424 236.113 229.491 240.051 230.42Z" fill="#00160A"/>
<path fill-rule="evenodd" clip-rule="evenodd" d="M257.894 281.418C258.477 281.428 258.942 281.909 258.932 282.493C258.894 284.649 259.196 286.171 259.778 287.047C262.222 290.721 264.295 293.199 266.238 294.024C266.292 294.047 266.418 294.079 266.615 294.117L266.906 294.169C267.125 294.206 268.047 294.345 268.209 294.371C268.816 294.467 269.318 294.559 269.806 294.67C270.886 294.914 271.783 295.227 272.527 295.662C274.761 296.967 276.235 298.875 276.378 300.751C276.544 302.92 274.968 304.539 272.183 305.047C265.343 306.294 260.556 305.071 258.034 301.272C255.409 297.551 252.788 294.464 250.173 292.012C247.601 289.599 245.317 288.047 243.347 287.349C242.796 287.154 242.509 286.549 242.704 285.999C242.899 285.449 243.503 285.161 244.053 285.356C246.338 286.166 248.852 287.873 251.62 290.469C254.346 293.026 257.059 296.221 259.779 300.077C261.766 303.071 265.709 304.078 271.804 302.966C273.611 302.637 274.344 301.883 274.27 300.913C274.186 299.819 273.146 298.472 271.46 297.487C270.933 297.179 270.226 296.933 269.339 296.732C268.957 296.645 268.558 296.57 268.086 296.492L266.558 296.255L266.262 296.203C265.896 296.134 265.636 296.065 265.413 295.971C263.959 295.354 262.466 294.027 260.902 292.157C259.871 290.924 259.08 289.814 258.018 288.218C257.153 286.918 256.773 285.002 256.818 282.456C256.828 281.872 257.31 281.407 257.894 281.418Z" fill="#00160A"/>
<path fill-rule="evenodd" clip-rule="evenodd" d="M266.433 300.923C266.538 300.573 266.906 300.375 267.255 300.479C268.344 300.804 269.114 301.164 269.584 301.591C270.03 301.996 270.47 302.617 270.922 303.461C271.094 303.783 270.972 304.183 270.651 304.355C270.329 304.528 269.928 304.406 269.756 304.084C269.37 303.362 269.011 302.855 268.696 302.569C268.405 302.304 267.792 302.019 266.877 301.745C266.527 301.641 266.329 301.273 266.433 300.923Z" fill="#00160A"/>
<path fill-rule="evenodd" clip-rule="evenodd" d="M269.881 299.524C269.996 299.178 270.37 298.991 270.716 299.106C271.649 299.416 272.342 299.77 272.802 300.188C273.258 300.603 273.696 301.273 274.14 302.208C274.297 302.537 274.156 302.932 273.827 303.088C273.497 303.245 273.103 303.104 272.946 302.774C272.57 301.982 272.218 301.443 271.913 301.166C271.612 300.893 271.072 300.617 270.299 300.36C269.953 300.245 269.765 299.871 269.881 299.524Z" fill="#00160A"/>
<path fill-rule="evenodd" clip-rule="evenodd" d="M241.592 308.631C241.707 308.284 242.081 308.097 242.427 308.212C243.359 308.522 244.052 308.876 244.513 309.294C244.969 309.709 245.407 310.379 245.851 311.314C246.008 311.643 245.867 312.038 245.537 312.194C245.208 312.351 244.814 312.21 244.657 311.881C244.281 311.088 243.929 310.549 243.624 310.273C243.323 309.999 242.783 309.723 242.01 309.466C241.664 309.351 241.476 308.977 241.592 308.631Z" fill="#00160A"/>
<path fill-rule="evenodd" clip-rule="evenodd" d="M243.514 306.388C243.63 306.041 244.004 305.854 244.35 305.969C245.282 306.28 245.975 306.633 246.436 307.052C246.892 307.466 247.33 308.137 247.774 309.071C247.93 309.401 247.79 309.795 247.46 309.951C247.131 310.108 246.736 309.967 246.58 309.638C246.204 308.845 245.852 308.307 245.547 308.03C245.246 307.756 244.706 307.481 243.933 307.223C243.587 307.108 243.399 306.734 243.514 306.388Z" fill="#00160A"/>
<path fill-rule="evenodd" clip-rule="evenodd" d="M165.707 283.008C166.138 282.614 173.436 290.984 175.001 293.636C175.505 294.491 175.904 295.314 176.258 296.195C176.367 296.466 176.468 296.734 176.578 297.038L176.993 298.21C177.609 299.921 178.632 300.62 180.019 301.403C184.089 303.7 188.896 303.672 191.376 302.049C192.752 301.149 190.894 298.647 187.287 298.647C185.601 298.647 184.15 296.387 183.048 293.447C182.531 292.069 182.402 289.871 182.618 286.781C182.658 286.199 183.163 285.759 183.746 285.8C184.328 285.84 184.768 286.346 184.727 286.928C184.531 289.737 184.646 291.685 185.028 292.704L185.139 292.992C185.882 294.854 186.974 296.533 187.287 296.533C189.828 296.533 191.978 297.512 193.134 299.069C194.357 300.716 194.196 302.731 192.534 303.819C189.373 305.887 183.72 305.92 178.98 303.245C177.148 302.211 176.345 301.14 175.594 299.118L175.19 297.981C175.055 297.602 174.94 297.293 174.816 296.983C174.5 296.198 174.147 295.47 173.7 294.711C172.145 292.075 169.456 288.666 165.642 284.502C165.248 284.071 165.277 283.402 165.707 283.008Z" fill="#00160A"/>
<path fill-rule="evenodd" clip-rule="evenodd" d="M185.286 300.923C185.39 300.573 185.758 300.375 186.108 300.479C187.197 300.804 187.967 301.164 188.437 301.591C188.883 301.996 189.323 302.617 189.774 303.461C189.946 303.783 189.825 304.183 189.503 304.355C189.181 304.528 188.781 304.406 188.609 304.084C188.223 303.362 187.864 302.855 187.548 302.569C187.257 302.304 186.645 302.019 185.73 301.745C185.38 301.641 185.181 301.273 185.286 300.923Z" fill="#00160A"/>
<path fill-rule="evenodd" clip-rule="evenodd" d="M187.772 299.845C187.887 299.499 188.261 299.311 188.607 299.426C189.54 299.737 190.233 300.09 190.693 300.509C191.149 300.923 191.588 301.594 192.031 302.528C192.188 302.858 192.047 303.252 191.718 303.408C191.388 303.565 190.994 303.424 190.837 303.095C190.461 302.302 190.109 301.764 189.804 301.487C189.503 301.213 188.963 300.938 188.19 300.68C187.844 300.565 187.657 300.191 187.772 299.845Z" fill="#00160A"/>
<path fill-rule="evenodd" clip-rule="evenodd" d="M65.893 188.016L65.6696 188.17C64.9622 188.665 63.5998 189.659 63.2997 189.87L63.2689 189.891C62.4916 190.427 61.9666 190.698 61.5563 190.776C54.3073 192.149 48.0468 193.686 43.7613 196.931C37.7691 201.468 34.5322 209.401 38.638 217.385C41.5596 223.067 52.6047 224.487 59.0723 221.415C60.1789 220.889 61.3575 220.231 62.7796 219.361L63.3708 218.996C63.5753 218.869 63.7857 218.737 64.0097 218.595L65.5581 217.607L67.2511 216.523L67.8708 216.131C74.0956 212.22 78.0506 210.529 82.2683 210.529C85.7546 210.529 88.2081 211.486 91.2902 213.747L91.5225 213.919C92.0578 214.319 95.5311 217.09 96.7038 217.943C99.7426 220.156 102.743 221.788 106.468 223.062L106.796 223.171C112.247 224.935 122.675 225.924 138.165 226.17C138.511 226.176 138.838 226.012 139.04 225.731L139.644 224.897C140.512 223.707 141.208 222.79 141.73 222.149C142.358 221.378 143.007 220.672 143.677 220.03C144.329 219.406 143.948 218.304 143.05 218.215L142.118 218.12C126.999 216.547 116.821 213.796 111.646 209.944L111.268 209.661C108.508 207.574 105.872 205.218 101.853 201.363L96.6605 196.374C94.6073 194.418 93.8857 193.782 92.4473 192.56L92.2221 192.369C88.8593 189.517 85.9417 187.562 83.1115 186.396C82.4905 186.14 81.8754 185.924 81.2651 185.747C74.963 183.926 70.4387 184.938 65.893 188.016ZM80.678 187.779C81.2125 187.933 81.7547 188.124 82.3058 188.351C84.8137 189.385 87.4682 191.142 90.5453 193.721L91.7494 194.745C93.0749 195.884 93.9925 196.737 97.0472 199.673L100.67 203.157C104.772 207.085 107.459 209.464 110.383 211.64L110.555 211.766C115.866 215.625 125.514 218.336 139.55 219.965L140.698 220.094L140.682 220.112C140.549 220.264 140.417 220.419 140.287 220.576L139.998 220.928L139.778 221.204C139.359 221.734 138.86 222.392 138.282 223.178L137.647 224.047L136.362 224.023C121.792 223.727 112.029 222.73 107.153 221.062C103.777 219.906 101.043 218.446 98.2802 216.473L97.9484 216.234C96.8228 215.414 93.3632 212.655 92.788 212.225C89.2589 209.589 86.3525 208.414 82.2683 208.414C77.5336 208.414 73.3007 210.222 66.7566 214.334L65.7508 214.972L63.5941 216.354C62.954 216.763 62.4482 217.082 61.9564 217.385L61.4101 217.719C60.1658 218.473 59.1266 219.048 58.165 219.505C52.6822 222.11 44.7634 219.944 42.391 215.331C38.7623 208.275 40.0391 203.089 45.2245 199.163C49.1857 196.164 54.9961 194.171 61.9499 192.853C62.6778 192.715 63.3793 192.367 64.2944 191.751L64.4686 191.632C64.7398 191.445 66.3852 190.243 67.0132 189.812L67.0787 189.767C71.1386 187.018 75.0318 186.147 80.678 187.779Z" fill="#00160A"/>
<path fill-rule="evenodd" clip-rule="evenodd" d="M333.884 216.513L333.785 216.755L333.584 217.256C330.983 223.853 328.688 233.961 326.684 247.603L326.567 248.405L326.56 248.366C325.784 243.791 324.804 240.236 323.611 237.69C321.538 233.266 318.585 231.596 315.096 233.184C303.772 238.335 304.447 259.283 316.44 296.095C316.599 296.584 317.056 296.916 317.571 296.916H330.59C330.939 296.916 331.271 296.762 331.497 296.496C347.754 277.32 355.034 264.429 353.255 257.347L353.197 257.122C351.577 251.029 347.527 249.724 341.752 252.998L341.546 253.115L341.834 252.453C351.854 229.241 353.692 214.949 346.922 209.379C341.952 205.29 337.416 207.995 333.884 216.513ZM345.605 210.298C351.565 215.201 349.446 231.259 338.14 256.147C337.623 257.285 350.948 248.366 350.948 257.926L350.99 258.108C352.273 263.993 345.652 275.873 331.055 293.328L330.037 294.537L317.571 295.425C317.571 295.425 300.763 239.93 316.081 235.349C320.489 234.031 323.741 240.432 325.354 257.747C325.486 259.165 327.545 259.195 327.719 257.781L327.86 256.641C330.177 238.122 332.926 225.034 336.082 217.424L336.262 216.995C339.21 210.094 342.274 207.558 345.605 210.298Z" fill="#00160A"/>
<path d="M345.411 211.216C351.371 216.12 348.956 231.135 337.65 256.023C337.133 257.161 338.497 258.224 339.474 257.445L339.872 257.132C346.295 252.132 349.588 252.514 350.948 257.927L350.991 258.108C352.273 263.993 345.653 275.873 331.055 293.328L330.038 294.537H318.435L318.019 293.241C307.081 258.959 306.65 239.64 316.081 235.349C320.432 233.37 323.741 240.432 325.354 257.747C325.486 259.165 327.545 259.195 327.719 257.782L327.86 256.641C330.177 238.122 332.927 225.034 336.082 217.424L336.263 216.995C339.21 210.094 342.081 208.476 345.411 211.216Z" fill="white"/>
<circle cx="314.417" cy="250.515" r="4.22905" fill="#E7EAEE"/>
<circle cx="340.848" cy="223.026" r="4.22905" fill="#E7EAEE"/>
<circle cx="342.963" cy="263.731" r="4.22905" fill="#E7EAEE"/>
<path fill-rule="evenodd" clip-rule="evenodd" d="M118.813 299.854C111.348 299.972 85.6766 301.874 85.2331 300.922C84.6658 299.703 112.66 298.101 118.762 298.004L120.673 297.978C126.222 297.918 118.813 299.854 118.813 299.854ZM228.62 297.379C229.277 297.362 229.823 297.88 229.841 298.537C229.858 299.194 229.34 299.74 228.683 299.757L218.058 300.02C211.445 300.172 203.78 300.329 192.454 300.552C191.797 300.565 191.254 300.043 191.241 299.386C191.228 298.73 191.75 298.187 192.407 298.174L212.463 297.765C218.552 297.633 223.444 297.516 228.62 297.379ZM256.025 296.825C256.681 296.815 257.222 297.339 257.233 297.996C257.243 298.652 256.719 299.193 256.062 299.204L253.275 299.238L244.747 299.297C242.962 299.315 241.564 299.339 239.916 299.38C239.26 299.396 238.714 298.877 238.698 298.22C238.682 297.563 239.202 297.018 239.858 297.002L241.956 296.957C243.329 296.932 244.725 296.916 246.579 296.902L253.67 296.855C254.495 296.847 255.241 296.838 256.025 296.825ZM333.109 294.537C333.109 294.537 335.245 294.168 350.836 295.336C351.491 295.385 351.982 295.956 351.933 296.611C351.884 297.266 344.174 296.935 333.634 296.916L330.736 296.921C322.996 296.955 315.807 297.165 303.875 297.656L288.814 298.292C282.387 298.555 278.553 298.684 273.89 298.794C273.234 298.809 272.689 298.289 272.673 297.633C272.658 296.976 273.177 296.431 273.834 296.415L277.578 296.318C282.032 296.189 286.609 296.01 294.724 295.663L303.329 295.298C316.783 294.741 324.264 294.537 333.109 294.537Z" fill="#00160A"/>
<path d="M297.07 123.322L297.342 122.821C299.475 118.958 301.333 117.04 303.499 117.666C303.675 117.717 303.847 117.786 304.016 117.873C305.344 118.562 305.662 119.841 305.29 121.588L305.266 121.696L305.328 121.606C305.957 120.712 306.557 120.022 307.179 119.51L307.313 119.403C308.696 118.326 310.163 118.226 311.492 119.348C313.613 121.139 313.373 124.143 311.641 125.992L311.545 126.091C311.304 126.335 311.159 126.861 310.997 128.101L310.858 129.187C310.69 130.441 310.577 130.99 310.312 131.839C309.813 133.443 308.994 134.78 307.72 135.873C306.117 137.246 303.413 137.055 299.604 135.489C299.195 135.321 299 134.853 299.168 134.444C299.336 134.035 293.825 129.175 293.658 129.388L293.605 129.45C293.298 129.769 292.791 129.779 292.472 129.472L291.698 128.726C291.232 128.277 291.464 127.489 292.1 127.364C293.264 127.135 294.167 126.883 294.802 126.614C295.335 126.388 295.626 126.172 295.695 126.032C295.695 126.032 296.852 123.727 297.07 123.322Z" fill="white"/>
<path fill-rule="evenodd" clip-rule="evenodd" d="M291.352 127.444C290.002 127.343 289.208 128.369 289.208 129.612C289.208 133.913 296.236 139.795 300.815 139.795C302.157 139.795 303.255 138.835 302.866 137.368C302.719 136.815 302.38 136.324 301.826 135.719L301.703 135.588C301.08 134.926 300.435 134.334 298.99 133.091L296.776 131.193C296.233 130.723 295.369 129.973 295.108 129.75L294.793 129.483C294.188 128.973 293.72 128.601 293.303 128.306C292.564 127.784 291.992 127.492 291.352 127.444ZM290.811 129.612C290.811 127.93 293.22 130.255 296.12 132.743L298.047 134.391C300.405 136.425 303.284 138.54 301.826 138.695C297.207 139.187 290.811 133.062 290.811 129.612Z" fill="#00160A"/>
<path fill-rule="evenodd" clip-rule="evenodd" d="M291.723 116.172C292.054 115.878 293.707 114.724 292.853 116.24C291.999 117.756 287.062 119.679 291.999 127.346C292.187 127.637 291.958 128.222 291.547 128.384C291.135 128.546 290.67 128.343 290.508 127.931C289.26 124.752 288.683 122.45 288.793 120.954C288.91 119.369 289.906 117.783 291.723 116.172Z" fill="#00160A"/>
<path fill-rule="evenodd" clip-rule="evenodd" d="M285.554 118.841C285.641 118.407 286.497 117.334 286.497 118.213C286.497 119.092 285.239 121.323 287.009 123.836C288.78 126.349 291.825 128.053 291.565 128.411C291.305 128.768 290.804 128.847 290.446 128.587C287.883 126.72 286.326 125.259 285.74 124.114C285.128 122.919 285.086 121.171 285.554 118.841Z" fill="#00160A"/>
<path fill-rule="evenodd" clip-rule="evenodd" d="M297.07 123.322L297.342 122.821C299.475 118.958 301.333 117.04 303.499 117.666C303.675 117.717 303.847 117.786 304.016 117.873C305.344 118.562 305.662 119.841 305.29 121.588L305.266 121.696L305.328 121.606C305.957 120.712 306.557 120.022 307.179 119.51L307.313 119.403C308.696 118.326 310.163 118.226 311.492 119.348C313.613 121.139 313.373 124.143 311.641 125.992L311.545 126.091C311.304 126.335 311.159 126.861 310.997 128.101L310.858 129.187C310.69 130.441 310.577 130.99 310.312 131.839C309.813 133.443 308.994 134.78 307.72 135.873C306.117 137.246 303.413 137.055 299.604 135.489C299.195 135.321 299 134.853 299.168 134.444C299.336 134.035 305.103 137.386 307.313 134.781C309.523 132.175 309.762 126.786 310.399 125.153L310.553 124.868C311.775 123.633 311.816 121.718 310.459 120.572C309.758 119.981 309.123 120.024 308.297 120.667C307.544 121.253 306.76 122.259 305.855 123.722L305.591 124.159C305.146 124.91 304.254 126.466 304.136 126.664L303.973 126.934C303.424 127.83 302.725 128.392 302.621 128.416C302.517 128.44 302.37 128.357 302.334 127.598C302.322 127.349 302.385 127.098 302.517 126.756L302.57 126.624C302.731 126.233 303.616 124.394 303.677 124.263C303.945 123.684 304.161 123.179 304.34 122.703C305.06 120.784 303.988 119.664 303.279 119.296C303.203 119.256 303.128 119.226 303.055 119.205C301.955 118.887 300.424 120.521 298.636 123.793L298.249 124.517C297.963 125.063 297.682 125.625 297.132 126.741C296.731 127.552 295.662 128.134 293.879 128.603L293.782 128.628L293.79 128.651C293.869 128.898 293.825 129.175 293.658 129.388L293.605 129.45C293.298 129.769 292.791 129.779 292.472 129.472L291.698 128.726C291.232 128.277 291.464 127.489 292.1 127.364C293.264 127.135 294.167 126.883 294.802 126.614C295.335 126.388 295.626 126.172 295.695 126.032L296.444 124.526C296.674 124.07 296.852 123.727 297.07 123.322Z" fill="#00160A"/>
<ellipse cx="307.58" cy="125.772" rx="1.82" ry="1.49212" fill="#FFB61D"/>
<ellipse cx="302.38" cy="121.612" rx="1.82" ry="1.49212" fill="#FFB61D"/>
<path fill-rule="evenodd" clip-rule="evenodd" d="M291.192 132.078C290.938 131.853 290.621 131.446 290.341 131.006L289.98 131.166L289.554 131.349C289.469 131.388 289.413 131.419 289.396 131.444C289.347 131.535 289.234 131.57 289.142 131.521C289.052 131.473 289.015 131.36 289.064 131.268C289.098 131.182 289.337 130.91 289.782 130.644C289.862 130.595 289.951 130.55 290.047 130.507C289.883 130.2 289.754 129.904 289.694 129.666C289.602 129.316 289.675 129.068 289.796 128.981C289.913 128.895 290.209 128.879 290.659 129.252C290.742 129.315 290.755 129.433 290.692 129.515C290.629 129.596 290.512 129.611 290.429 129.548C290.343 129.485 290.257 129.45 290.187 129.424L290.221 129.558C290.235 129.606 290.251 129.656 290.274 129.704C290.354 129.881 290.457 130.082 290.572 130.289C290.924 130.156 291.324 130.035 291.757 129.977C291.967 129.949 292.182 129.944 292.406 129.945C292.534 129.937 292.645 130.034 292.654 130.163C292.662 130.291 292.564 130.402 292.436 130.411C291.916 130.461 291.435 130.592 291.011 130.74L290.871 130.79C291.101 131.149 291.347 131.476 291.558 131.66C291.672 131.761 291.684 131.937 291.584 132.052C291.481 132.168 291.306 132.179 291.192 132.078Z" fill="#FFB61D"/>
<path fill-rule="evenodd" clip-rule="evenodd" d="M168.91 275.141C167.595 281.337 161.248 283.094 161.317 288.082C161.352 290.662 162.064 292.803 162.649 294.449C163.839 297.795 166.938 301.242 168.373 304.434C169.6 307.161 175.754 305.316 176.246 309.555C176.514 311.864 172.16 313.194 170.975 313.284C169.274 313.413 167.118 312.829 164.507 311.532C161.332 309.989 158.783 308.773 156.937 306.55C156.578 306.117 156.352 304.893 155.954 302.968C155.518 300.862 154.03 295.508 150.144 286.864C149.588 285.63 147.464 280.577 145.1 275.409C143.15 271.145 151.21 262.602 154.784 262.901C163.562 263.635 169.838 270.764 168.91 275.141Z" fill="white"/>
<path fill-rule="evenodd" clip-rule="evenodd" d="M162.755 311.623C160.57 310.322 158.772 308.823 157.363 307.125C157.003 306.691 156.739 305.094 156.341 303.17C156.132 302.161 148.545 283.96 146.043 277.109C145.576 275.83 146.709 276.725 146.976 277.109C148.428 279.201 157.363 293.002 161.632 305.788" fill="#E7EAEE"/>
<path fill-rule="evenodd" clip-rule="evenodd" d="M164.458 311.079L164.783 311.239C167.238 312.459 169.221 312.996 170.7 312.884C172.289 312.764 174.884 311.331 174.998 310.111C175.183 308.152 174.652 307.596 172.031 306.606C171.272 306.319 169.217 306.382 166.049 306.862C165.472 306.949 164.933 306.552 164.846 305.974C164.758 305.397 165.156 304.858 165.733 304.771L166.254 304.694C169.493 304.23 171.616 304.189 172.779 304.628L173.123 304.761C176.269 306.005 177.387 307.291 177.104 310.309C176.863 312.865 173.354 314.804 170.86 314.993C169 315.134 166.758 314.547 164.116 313.268L163.85 313.137C160.545 311.532 157.914 309.559 155.967 307.213C155.711 306.904 155.547 306.493 155.379 305.861L155.34 305.711C155.277 305.466 155.215 305.194 155.142 304.854L154.723 302.797L154.659 302.497C153.969 299.409 151.972 293.71 148.946 286.939L148.485 285.92C148.2 285.301 144.142 278.724 143.839 277.182C142.706 271.42 147.338 268.565 147.338 268.565C147.338 268.565 144.936 273.633 145.612 276.125C146.139 278.062 150.58 284.727 152.16 289.837C153.795 295.125 155.506 300.767 158.006 305.381C159.893 308.863 161.244 310.441 164.458 311.079Z" fill="#00160A"/>
<path fill-rule="evenodd" clip-rule="evenodd" d="M169.585 309.894C169.69 309.545 170.058 309.346 170.408 309.45C171.496 309.776 172.267 310.135 172.737 310.562C173.182 310.967 173.623 311.589 174.074 312.433C174.246 312.754 174.125 313.155 173.803 313.327C173.481 313.499 173.081 313.378 172.909 313.056C172.522 312.334 172.163 311.827 171.848 311.54C171.557 311.276 170.945 310.99 170.029 310.717C169.68 310.612 169.481 310.244 169.585 309.894Z" fill="#00160A"/>
<path fill-rule="evenodd" clip-rule="evenodd" d="M171.431 307.855C171.546 307.509 171.92 307.322 172.267 307.437C173.199 307.747 173.892 308.101 174.352 308.519C174.809 308.934 175.247 309.604 175.69 310.538C175.847 310.868 175.706 311.262 175.377 311.419C175.047 311.575 174.653 311.435 174.496 311.105C174.12 310.313 173.768 309.774 173.463 309.497C173.163 309.224 172.622 308.948 171.849 308.691C171.503 308.576 171.316 308.201 171.431 307.855Z" fill="#00160A"/>
<path fill-rule="evenodd" clip-rule="evenodd" d="M164.814 265.268C167.139 266.203 171.711 271.387 171.004 274.298C170.273 277.308 169.2 278.511 167.493 280.507L167.315 280.713C166.794 281.305 164.644 283.489 164.559 283.581L164.355 283.806C162.439 285.967 161.657 288.358 163.215 292.763C164.356 295.991 166.234 299.659 168.826 303.157C169.168 303.619 170.019 304.974 169.557 305.316C169.096 305.658 168.004 304.553 167.662 304.091C164.953 300.436 162.989 296.892 161.774 293.457C159.938 288.268 160.381 286.13 162.915 283.336L163.076 283.162C163.347 282.88 165.21 280.985 165.703 280.435L165.753 280.379C167.344 278.569 168.393 276.651 169.067 273.879C169.532 271.963 167.576 268.562 163.442 265.801C160.698 263.969 162.49 264.333 164.814 265.268Z" fill="#00160A"/>
</svg>
